<svg id="visual" viewBox="0 0 1920 2160" xmlns="http://www.w3.org/2000/svg" version="1.1">
        <g fill="#213447">
            <circle r="135" cx="1681" cy="1513"></circle>
            <circle r="43" cx="1478" cy="149"></circle>
            <circle r="121" cx="1310" cy="1038"></circle>
            <circle r="117" cx="760" cy="589"></circle>
            <circle r="70" cx="925" cy="1554"></circle>
            <circle r="105" cx="1641" cy="1859"></circle>
            <circle r="46" cx="611" cy="1925"></circle>
            <circle r="73" cx="1175" cy="516"></circle>
            <circle r="65" cx="1720" cy="1022"></circle>
            <circle r="96" cx="587" cy="1098"></circle>
            <circle r="75" cx="288" cy="1558"></circle>
            <circle r="116" cx="1339" cy="1447"></circle>
            <circle r="51" cx="268" cy="597"></circle>
            <circle r="113" cx="142" cy="1305"></circle>
            <circle r="78" cx="538" cy="267"></circle>
            <circle r="68" cx="1604" cy="679"></circle>
            <circle r="121" cx="657" cy="1577"></circle>
            <circle r="107" cx="502" cy="766"></circle>
            <circle r="96" cx="192" cy="1040"></circle>
            <circle r="99" cx="149" cy="208"></circle>
            <circle r="107" cx="1638" cy="401"></circle>
            <circle r="78" cx="1050" cy="1851"></circle>
            <circle r="102" cx="1285" cy="1987"></circle>
            <circle r="98" cx="861" cy="928"></circle>
            <circle r="95" cx="140" cy="1834"></circle>
        </g>
</svg>