<svg id="visual" viewBox="0 0 960 60" width="960" height="60" xmlns="http://www.w3.org/2000/svg" xmlns:xlink="http://www.w3.org/1999/xlink" version="1.1"><path d="M0 37L11.5 37.8C23 38.7 46 40.3 68.8 42.5C91.7 44.7 114.3 47.3 137.2 46.5C160 45.7 183 41.3 205.8 40.7C228.7 40 251.3 43 274.2 45.2C297 47.3 320 48.7 342.8 48C365.7 47.3 388.3 44.7 411.2 43.3C434 42 457 42 480 43.3C503 44.7 526 47.3 548.8 47.7C571.7 48 594.3 46 617.2 44.2C640 42.3 663 40.7 685.8 40.7C708.7 40.7 731.3 42.3 754.2 41.8C777 41.3 800 38.7 822.8 38.5C845.7 38.3 868.3 40.7 891.2 41.8C914 43 937 43 948.5 43L960 43L960 0L948.5 0C937 0 914 0 891.2 0C868.3 0 845.7 0 822.8 0C800 0 777 0 754.2 0C731.3 0 708.7 0 685.8 0C663 0 640 0 617.2 0C594.3 0 571.7 0 548.8 0C526 0 503 0 480 0C457 0 434 0 411.2 0C388.3 0 365.7 0 342.8 0C320 0 297 0 274.2 0C251.3 0 228.7 0 205.8 0C183 0 160 0 137.2 0C114.3 0 91.7 0 68.8 0C46 0 23 0 11.5 0L0 0Z" fill="#9db08e"></path><path d="M0 32L11.5 30.3C23 28.7 46 25.3 68.8 24.5C91.7 23.7 114.3 25.3 137.2 24.8C160 24.3 183 21.7 205.8 20.5C228.7 19.3 251.3 19.7 274.2 21.8C297 24 320 28 342.8 30.8C365.7 33.7 388.3 35.3 411.2 33.8C434 32.3 457 27.7 480 25.8C503 24 526 25 548.8 26.5C571.7 28 594.3 30 617.2 29.5C640 29 663 26 685.8 23.8C708.7 21.7 731.3 20.3 754.2 20.8C777 21.3 800 23.7 822.8 24C845.7 24.3 868.3 22.7 891.2 23.3C914 24 937 27 948.5 28.5L960 30L960 0L948.5 0C937 0 914 0 891.2 0C868.3 0 845.7 0 822.8 0C800 0 777 0 754.2 0C731.3 0 708.7 0 685.8 0C663 0 640 0 617.2 0C594.3 0 571.7 0 548.8 0C526 0 503 0 480 0C457 0 434 0 411.2 0C388.3 0 365.7 0 342.8 0C320 0 297 0 274.2 0C251.3 0 228.7 0 205.8 0C183 0 160 0 137.2 0C114.3 0 91.7 0 68.8 0C46 0 23 0 11.5 0L0 0Z" fill="#b9d3ac"></path><path d="M0 10L11.5 9.3C23 8.7 46 7.3 68.8 8C91.7 8.7 114.3 11.3 137.2 11.5C160 11.7 183 9.3 205.8 8.7C228.7 8 251.3 9 274.2 9.2C297 9.3 320 8.7 342.8 8.3C365.7 8 388.3 8 411.2 9.8C434 11.7 457 15.3 480 15.5C503 15.7 526 12.3 548.8 11.7C571.7 11 594.3 13 617.2 14.8C640 16.7 663 18.3 685.8 17.2C708.7 16 731.3 12 754.2 10.3C777 8.7 800 9.3 822.8 10.3C845.7 11.3 868.3 12.7 891.2 12.7C914 12.7 937 11.3 948.5 10.7L960 10L960 0L948.5 0C937 0 914 0 891.2 0C868.3 0 845.7 0 822.8 0C800 0 777 0 754.2 0C731.3 0 708.7 0 685.8 0C663 0 640 0 617.2 0C594.3 0 571.7 0 548.8 0C526 0 503 0 480 0C457 0 434 0 411.2 0C388.3 0 365.7 0 342.8 0C320 0 297 0 274.2 0C251.3 0 228.7 0 205.8 0C183 0 160 0 137.2 0C114.3 0 91.7 0 68.8 0C46 0 23 0 11.5 0L0 0Z" fill="#d6f7cc"></path></svg>